<?xml version="1.0" encoding="utf-8"?>
<svg version="1.1" xmlns="http://www.w3.org/2000/svg" xmlns:xlink="http://www.w3.org/1999/xlink" x="0px" y="0px" viewBox="0 0 182.3 68.2">
<style type="text/css">.path,line{fill:#000;}rect{fill:#000;width:38px;height:1px}</style>
			<path d="M26,24.4c0.6,0,1,0.2,1.1,0.4c0.1,0.2,0,0.6-0.3,1.2c-0.3,0.5-0.5,0.9-0.8,1.1c-0.3,0.2-0.7,0.3-1.2,0.3
				c-0.5,0-1-0.1-1.5-0.1c-0.5,0-1.2,0-1.9,0c-0.3,0.9-0.6,1.7-0.9,2.7c-0.3,0.9-0.6,1.8-0.9,2.7c0.8,0,1.5,0.1,2.2,0.1
				c0.7,0,1.3,0.1,2,0.1c0.6,0.1,0.9,0.2,1.1,0.4c0.1,0.2,0,0.6-0.2,1.2c-0.3,0.5-0.5,0.9-0.8,1.1c-0.3,0.2-0.7,0.3-1.2,0.3
				c-0.5,0-1.1-0.1-1.8-0.1c-0.6,0-1.3,0-2.1,0c0,0.1-0.1,0.1-0.1,0.2c0,0.1,0,0.1-0.1,0.2c-0.5,1.7-0.8,3-1.1,3.9
				c-0.2,0.9-0.4,1.6-0.5,2.1c-0.1,0.5-0.2,0.8-0.2,0.9c0,0-0.4,0.2-1,0.4c-0.6,0.3-1.3,0.4-1.9,0.4c-0.6,0-0.9-0.1-1-0.2
				c-0.1-0.1-0.1-0.4,0-0.8c0-0.1,0.1-0.4,0.3-0.8c0.1-0.4,0.3-1,0.5-1.6c0.2-0.6,0.5-1.4,0.7-2.2c0.3-0.8,0.5-1.7,0.8-2.5h-2.4
				c-0.3,0-0.7,0-1,0c-0.3,0-0.7,0-1,0c0,0.1,0,0.1,0,0.2c0,0,0,0.1,0,0.2c-0.5,1.7-0.8,3-1.1,3.9c-0.2,0.9-0.4,1.6-0.5,2.1
				C9.1,42.8,9,43,9,43.1c0,0.1,0,0.1,0,0.1c-0.1,0-0.4,0.2-1,0.4c-0.6,0.3-1.2,0.4-1.9,0.4c-0.6,0-0.9-0.1-1-0.2
				c-0.1-0.1-0.1-0.4,0.1-0.8c0-0.1,0.1-0.3,0.2-0.7c0.1-0.4,0.3-0.9,0.5-1.5c0.2-0.6,0.4-1.3,0.7-2.1c0.3-0.8,0.5-1.6,0.9-2.4
				c-0.6,0-1.2,0.1-1.8,0.2c-0.5,0.1-1,0.1-1.6,0.2c-0.6,0.1-1.1,0.2-1.6,0.2c-0.1-0.2-0.1-0.4,0-0.7c0.1-0.3,0.1-0.5,0.2-0.7
				c0.1-0.2,0.2-0.5,0.3-0.7c0.1-0.3,0.4-0.6,0.6-1c0.3-0.4,0.6-0.6,0.9-0.6c0.2-0.1,0.7-0.1,1.5-0.2c0.7-0.1,1.6-0.1,2.7-0.2
				c0.4-1.1,0.8-2.2,1.1-3.1c0.3-0.9,0.5-1.6,0.7-2c-0.7,0.1-1.4,0.1-2,0.2C7.7,28,7.1,28,6.5,28.1c-0.6,0.1-1.2,0.2-1.8,0.3
				c-0.1-0.4-0.1-0.9,0.1-1.4c0.1-0.2,0.2-0.5,0.3-0.7c0.2-0.3,0.4-0.6,0.7-0.9C6,25,6.3,24.7,6.6,24.6c0.2-0.1,0.8-0.1,1.6-0.2
				c0.9-0.1,1.9-0.2,3.1-0.2l1.5-5.1c0.2-0.5,0.4-1,0.7-1.3c0.3-0.3,0.9-0.5,1.7-0.7c0.7-0.1,1.2-0.2,1.4-0.2c0.3,0,0.4,0.1,0.4,0.2
				c-0.1,0.3-0.4,1.1-0.9,2.4c-0.4,1.3-1,2.8-1.6,4.5h1.8c0.5,0,1,0,1.5,0c0.5,0,0.9,0,1.3,0.1l1.5-5c0.2-0.5,0.4-1,0.7-1.3
				c0.3-0.3,0.9-0.5,1.7-0.7c0.7-0.1,1.2-0.2,1.4-0.2c0.3,0,0.4,0.1,0.4,0.2c-0.1,0.3-0.4,1.2-0.9,2.4c-0.5,1.3-1,2.8-1.6,4.6
				c0.6,0,1.2,0.1,1.8,0.1C24.9,24.3,25.4,24.3,26,24.4z M16.4,32.7c0.4-1.3,0.8-2.4,1.2-3.4c0.3-1,0.6-1.6,0.7-1.9
				c-0.5,0-1.1,0-1.6,0c-0.5,0-1.1,0-1.6,0c-0.3,0-0.5,0-0.8,0c-0.2,0-0.5,0-0.7,0.1c-0.3,0.9-0.6,1.7-0.9,2.6
				c-0.3,0.9-0.5,1.7-0.8,2.6c0.4,0,0.8,0,1.2,0c0.4,0,0.8,0,1.2,0c0.4,0,0.7,0,1.1,0C15.7,32.7,16,32.7,16.4,32.7z"/><path d="M30.5,32.6c0.9-2.9,2.9-5.9,6-9.1c2.4-2.1,4.4-3.2,5.8-3.2c1.7,0,2.6,0.9,2.6,2.8c0,0.7-0.2,1.6-0.6,2.6
				c-0.4,1-0.9,1.9-1.6,2.7c-0.7,0.8-1.4,1.2-2.1,1.3c-0.4-0.2-0.5-0.3-0.5-0.3c-0.3-0.3-0.5-0.6-0.5-0.9c0.1-0.2,0.4-0.6,1-1.3
				c0.5-0.7,0.9-1.2,1.2-1.7c0.3-0.4,0.4-0.9,0.4-1.3c0-0.4-0.1-0.6-0.2-0.6c-0.1-0.1-0.2-0.1-0.3-0.1c-0.6,0-1.4,0.5-2.6,1.6
				c-1.1,1.1-2.2,2.4-3.3,3.9c-1.1,1.6-1.8,3-2.3,4.4c-0.3,0.7-0.5,1.5-0.6,2.3c0.1,0.2,0.1,0.4,0.1,0.6c0,1.1,0.7,1.7,2,1.8
				c3.2-1.1,6.1-3.4,8.8-6.8c0.8-0.9,1.3-1.3,1.7-1.3c0.2,0,0.4,0.2,0.5,0.5c0.1,0.3,0.2,0.6,0.2,0.8c0,0.5-0.1,0.8-0.4,1
				c-3.7,5.8-7.4,8.7-11.1,8.9c-1.5,0-2.7-0.4-3.6-1.2c-0.9-0.8-1.4-1.9-1.5-3.1C29.6,35.7,29.9,34.2,30.5,32.6z"/><path d="M55.6,27.1c0.8-1,2.1-2.1,3.9-3.5c1.8-1.4,3.2-2.2,4.2-2.6c0.2-0.1,0.6-0.1,1-0.1c1.1,0,1.6,0.5,1.6,1.4
				c0,0.5-0.1,1-0.4,1.6c-1,1.5-1.8,2.6-2.3,3.4C63,28.1,62.4,29,61.8,30s-1.2,2-1.6,2.9c-0.4,0.9-0.6,1.6-0.7,2.2
				c0.1,0.7,0.5,1,1,1c0.8,0,1.5-0.4,2.2-1.3c0.7-0.9,1.8-2.4,3.3-4.7c0.8-1.1,1.5-1.7,2.1-1.7c0.2,0,0.4,0.3,0.4,0.8
				c0,0.2-0.1,0.6-0.2,1.3c-0.6,1.2-1.4,2.6-2.4,4c-1,1.4-2.2,2.7-3.5,3.8c-1.3,1.1-2.6,1.6-3.8,1.6c-1.5,0-2.3-1-2.5-3
				c0.1-0.3,0.1-0.5,0.1-0.8c0.3-1.5,0.8-2.9,1.5-4.4c0.7-1.5,1.9-3.6,3.6-6.2c-2.4,1.2-4.7,3.2-6.7,5.8c-2,2.6-3.5,5.3-4.5,8.1
				c-0.4,1.3-1,1.9-1.7,1.9c-0.8,0-1.1-0.6-1.1-1.7c0-0.9,0.2-1.8,0.5-2.8c0.4-1,0.8-2,1.3-3c0.5-1,1-2,1.5-2.9c0.5-1,1.5-3.1,3-6.1
				c1.5-3.1,2.5-5.2,3.1-6.4c0.6-1.2,1.2-2.5,1.9-3.9c0.7-1.4,1.3-2.8,2.1-4.3c0.2-0.3,0.6-1.3,1.3-2.9c0.7-1.6,1.3-2.9,2-3.9
				c0.6-0.9,1.4-1.6,2.3-2.1h0.4c0.5,0,0.8,0.2,1.1,0.5c0.3,0.3,0.5,0.7,0.5,1.2c0,0.5-0.2,1.2-0.7,2.1c-1.2,1.8-2.5,4-4,6.5
				c-1.5,2.6-3,5.3-4.6,8.2c-1.6,2.9-2.7,5.2-3.6,7L55.6,27.1z"/><path d="M72.1,34.3c0,1.9,1,3,3.1,3.1c1.8-0.2,3.3-0.8,4.5-1.7c1.2-0.9,2.8-2.4,4.7-4.5c0.2-0.2,0.4-0.4,0.5-0.5
				c0.2-0.2,0.3-0.3,0.5-0.5c0.2-0.1,0.4-0.2,0.5-0.2c0.2,0,0.5,0.1,0.6,0.3c0.2,0.2,0.3,0.4,0.3,0.6c0,0.1,0,0.2-0.1,0.3
				c0,0.1-0.1,0.2-0.1,0.3c-0.4,1-1.4,2.3-3,3.7c-1.6,1.5-3.4,2.8-5.6,4c-1.4,0.8-3,1.3-4.7,1.4c-3.2-0.3-4.8-1.9-4.8-4.9
				c0-1.8,0.5-3.7,1.5-5.7c1-2,2.1-3.6,3.3-4.8c3-3,5.6-4.6,7.5-4.6c1.6,0,2.3,0.8,2.3,2.3c0,1.2-0.5,2.5-1.4,4c-1,1.5-2,2.7-3,3.5
				C76.7,32.5,74.4,33.7,72.1,34.3z M72.9,31.7c1-0.3,1.9-0.7,2.7-1.2c0.7-0.5,1.6-1.2,2.6-2.2c1.4-1.4,2.2-2.5,2.3-3.4
				c0-0.7-0.2-1-0.6-1c-0.7,0-1.6,0.5-2.7,1.6c-0.9,0.8-1.7,1.8-2.6,3C73.6,29.8,73.1,30.8,72.9,31.7z"/><path d="M92.8,29.6c3.6-3.6,6.3-5.8,8.1-6.5c0.3-0.2,0.6-0.3,0.9-0.3c0.3,0,0.7,0.1,1,0.3c0.3,0.2,0.5,0.5,0.5,0.8
				c0,0.5-0.1,1-0.4,1.4c-0.3,0.4-0.7,1-1.4,1.7c-0.6,0.7-1.1,1.2-1.3,1.5c-0.2,0.3-0.4,0.7-0.5,1.2c1-0.9,2-1.9,3.2-3
				c1.2-1.1,2.5-2.1,3.8-3.1c1.4-1,2.5-1.5,3.3-1.5c1,0,1.5,0.5,1.5,1.5c0,0.6-0.5,1.4-1.4,2.3c-1.8,1.9-3.3,3.6-4.3,5.1
				c-1,1.5-1.7,3.1-1.8,4.9c0,1.2,0.2,2.2,0.7,3c0.7,0.6,1,1.2,1,1.7c0,0.7-0.5,1.2-1.6,1.5c-1.9-0.3-2.9-2.2-3.1-5.4
				c0.1-3,1.4-5.8,3.7-8.6l-0.1-0.1c-2.7,2.1-5.4,5.3-8.1,9.6c-0.4,1-0.8,1.8-1.2,2.4c-0.4,0.6-0.9,0.9-1.5,0.9
				c-0.5-0.1-0.7-0.3-0.9-0.6c-0.1-0.3-0.2-0.7-0.2-1.3c0.3-1.7,1.8-5,4.3-9.9l-0.1-0.1c-1.8,1.5-3.3,3.2-4.6,5.1
				c-1.3,1.9-2.4,3.9-3.4,6.2c-0.4,1.4-1.2,2.1-2.2,2.1c-0.5,0-0.8-0.4-0.8-1.3v-0.9c0.4-1.9,1.3-4.4,2.6-7.4c1.3-3,2.7-5.6,4.2-7.9
				c1.5-2.3,2.6-3.4,3.4-3.4c0.3,0,0.5,0.1,0.7,0.4c0.2,0.3,0.3,0.6,0.3,0.9c0,0.1-0.1,0.5-0.4,1.2c-0.1,0.1-0.4,0.6-1.1,1.6
				c-0.7,1-1.2,1.8-1.6,2.5C93.3,28.5,93,29.1,92.8,29.6z"/><path d="M124.3,19.4c1.6,0.1,2.5,1.3,2.5,3.5c0,1.8-0.7,4.2-2,7.2c-1.4,3-3.1,5.6-4.9,7.7c-1.8,2.1-3.6,3.2-5.4,3.2
				c-2.2-0.1-3.3-1.5-3.5-4.3c0.1-3.2,1.4-6.5,3.7-10c0.8-1.2,1.8-2.4,2.9-3.5c1.1-1.1,2.2-2,3.4-2.7
				C122.2,19.8,123.3,19.4,124.3,19.4z M120.8,31.8c-0.4-0.3-0.6-0.6-0.8-0.8c0-0.2,0.4-0.9,1.2-1.8c0.8-1,1.4-1.9,1.8-2.7
				c0.6-1,0.9-1.7,0.9-2.2c0-0.8-0.3-1.2-1-1.2c-0.5,0-1,0.2-1.6,0.7c-1.8,1.4-3.5,3.1-4.8,5.3c-1.4,2.2-2.2,4.3-2.3,6.5
				c0.1,0.6,0.3,1,0.5,1.3c0.2,0.2,0.5,0.4,1,0.5c0.9-0.1,1.8-0.6,2.7-1.6C119.3,34.8,120.1,33.5,120.8,31.8z"/><path d="M136.4,34.9c-2.3,4-4.5,6.1-6.6,6.2c-2.2-0.2-3.4-1.9-3.4-5.2c0-2,0.5-4.2,1.5-6.4c1-2.3,2.3-4.3,3.9-6
				c0.9-0.8,1.8-1.5,2.9-2c1.1-0.5,2.1-0.8,3.1-0.8c1.1,0,2,0.3,2.6,0.8l6.4-12.1c0.8-1.5,1.8-3.2,2.8-4.9c0.6-1,1.2-1.8,1.5-2.3
				c0.4-0.5,0.8-0.7,1.2-0.7c0.4,0,0.8,0.2,1.1,0.6c0.3,0.4,0.4,0.8,0.4,1.2c0,0.5-0.1,0.9-0.4,1.4c-0.3,0.5-0.7,1.1-1.2,2
				s-0.9,1.3-1,1.6c-2,3.4-3.3,5.7-4.1,6.9c-0.7,1.2-1.7,3.1-2.9,5.5c-1.2,2.4-2.3,4.7-3.2,7c-0.9,2.3-1.4,4.3-1.6,6.1
				c0,0.6,0,1.2-0.1,1.6c0.2,1.8,0.6,3,1.3,3.5c0.3,0.2,0.5,0.4,0.7,0.7v0.5c0,0.2,0,0.3-0.1,0.5c0,0.2-0.1,0.3-0.1,0.4
				c-0.2,0.5-0.6,0.8-1.2,0.9c-1.4-0.3-2.3-1-2.8-2.2C136.8,38.2,136.5,36.7,136.4,34.9z M139.3,24.1c-0.4-0.3-1.1-0.5-1.8-0.5
				c-1.2,0-2.4,0.6-3.6,1.8c-0.8,0.8-1.6,1.8-2.3,3c-0.7,1.2-1.2,2.3-1.6,3.5c-0.4,1.2-0.6,2.2-0.7,3.1c0.1,1.2,0.5,1.9,1.1,2.1
				c1.2,0,2.8-1.6,4.7-4.7c0.5-0.9,1-1.8,1.5-2.8c0.5-1,1-2,1.5-3.1C138.6,25.5,139,24.7,139.3,24.1z"/><path d="M153.3,35.3l-0.1-0.1c-0.9,1.8-1.8,3.2-2.9,4.1c-1.1,1-2.2,1.5-3.2,1.6c-2.2-0.2-3.2-1.7-3.2-4.4
				c0-1.5,0.4-3.3,1.2-5.4s1.9-4.1,3.2-5.9c1.4-1.9,2.8-3.3,4.2-4.2c1.6-0.9,2.9-1.3,4.1-1.3c1,0,1.8,0.2,2.4,0.7
				c0.6,0.5,0.9,1.2,0.9,2c0,0.3-0.2,0.9-0.5,1.7c0.3,0.4,0.4,0.8,0.4,1.3c0,0.6-0.3,1.5-0.9,2.5c-0.6,1.1-1,1.7-1.1,2
				c-1.2,2.3-1.8,4.2-1.8,5.8c0,1.1,0.2,1.9,0.5,2.4c0.3,0.4,0.8,0.8,1.4,1.2c0.6,0.2,1,0.7,1,1.5c0,0.8-0.5,1.2-1.6,1.3
				c-0.2-0.1-0.6-0.2-1-0.3s-0.8-0.2-1.1-0.4c-0.3-0.2-0.5-0.4-0.8-0.8c-0.7-0.9-1.2-2-1.3-3.5C153.2,36.3,153.3,35.7,153.3,35.3z
				 M157.4,24.4c-0.4-0.9-1.1-1.3-2-1.3c-0.9,0-1.7,0.3-2.4,0.9c-0.7,0.6-1.5,1.4-2.4,2.4c-0.8,1.2-1.7,2.7-2.5,4.6
				c-0.8,1.8-1.3,3.3-1.3,4.5c0.1,1,0.4,1.6,0.9,1.7c1.5,0,3.2-1.7,5-5.1c0.7-1.3,1.3-2.5,1.8-3.6c0.5-1,1-1.9,1.5-2.6
				C156.6,25.1,157,24.6,157.4,24.4z"/><path d="M171.9,28.8c-3,2-5.5,5.1-7.7,9.3c-0.6,1-1,1.7-1.3,2.1s-0.7,0.5-1.3,0.5c-0.4,0-0.8-0.2-1-0.5
				c-0.3-0.4-0.4-0.8-0.4-1.3c0.2-1,0.5-2,1-3c0.4-1,1.1-2.2,1.9-3.7c0.8-1.5,1.3-2.4,1.4-2.6c1.6-2.9,2.7-4.8,3.5-5.8
				c0.8-1,1.5-1.5,2.1-1.5c0.3,0,0.5,0.2,0.7,0.5c0.2,0.3,0.3,0.6,0.3,0.8c0,0.1,0,0.2-0.1,0.4c0,0.1-0.1,0.2-0.1,0.3
				c-0.2,0.6-0.8,1.5-1.6,2.7c-0.8,1.2-1.3,2-1.4,2.2l0.3,0.1c0.8-1.1,2.4-2.7,4.7-4.6c2.3-1.9,3.9-2.9,4.9-2.9
				c0.9,0.1,1.3,0.6,1.3,1.6c0,0.3-0.2,0.8-0.6,1.4c-1.1,1.6-2.2,3.1-3.2,4.6c-1,1.5-1.8,3-2.5,4.5c-0.7,1.5-1,3.1-1.1,4.8
				c0.2,1.2,0.4,2,0.6,2.6c0.5,0.9,0.7,1.5,0.7,1.8c0,0.8-0.4,1.1-1.3,1.1c-1.8,0-2.8-1.9-3.1-5.6c0.1-0.3,0.1-0.7,0.1-1.1
				c0.4-3,1.5-5.8,3.2-8.5L171.9,28.8z"/><line x1="179.5" y1="61.5" x2="179.5" y2="61.5"/><rect x="141.3" y="60.5"/><rect x="2.3" y="60.5"/><path d="M66.3,54.4c1.1,0,1.9,0.3,2.5,0.8c0.5,0.5,0.8,1.2,0.8,2.1c0,0.8-0.2,1.7-0.6,2.7c-0.4,1-1,1.9-1.8,2.7
				c-0.8,0.8-1.7,1.5-2.7,2.1s-2.2,0.8-3.4,0.8c-1.1,0-2-0.3-2.5-0.8c-0.6-0.6-0.9-1.2-1-2.1c-0.1-0.8,0-1.7,0.4-2.7
				c0.4-1,0.9-1.9,1.7-2.7c0.8-0.8,1.7-1.5,2.8-2.1C63.6,54.7,64.9,54.4,66.3,54.4z M61.2,65.1c0.3,0,0.7-0.3,1.1-0.8
				c0.4-0.5,0.9-1.1,1.4-1.9c0.5-0.8,0.9-1.6,1.3-2.4c0.4-0.9,0.8-1.7,1-2.4c0.3-0.8,0.4-1.4,0.4-1.9c0-0.5-0.1-0.8-0.4-0.8
				c-0.4,0-0.9,0.3-1.4,0.8c-0.5,0.5-1,1.1-1.4,1.9c-0.5,0.8-0.9,1.6-1.3,2.4c-0.4,0.9-0.7,1.7-0.9,2.4c-0.2,0.8-0.3,1.4-0.3,1.9
				C60.8,64.8,60.9,65.1,61.2,65.1z"/><path d="M68.9,65.6L74,55l4.4-0.6L73,65.6H68.9z M81.1,54.4c1.3,0,2.1,0.5,2.3,1.4c0.2,0.9-0.2,2.4-1.3,4.3
				c-0.9,1.6-1.4,2.7-1.7,3.3c-0.3,0.6-0.3,1,0.1,1c0.3,0,0.7-0.2,1.1-0.6c0.4-0.4,0.8-0.9,1.2-1.4c0.5-0.6,0.9-1.3,1.4-2.1
				c-0.4,1-0.9,1.9-1.5,2.7c-0.2,0.3-0.5,0.7-0.8,1c-0.3,0.3-0.6,0.6-1,0.9c-0.4,0.3-0.8,0.5-1.2,0.6c-0.4,0.1-0.9,0.2-1.3,0.2
				c-0.6,0-1-0.1-1.3-0.3c-0.3-0.2-0.5-0.4-0.6-0.7c-0.1-0.3-0.1-0.6,0-1c0.1-0.4,0.2-0.8,0.4-1.2c0.2-0.4,0.4-0.8,0.6-1.3
				c0.2-0.4,0.4-0.8,0.6-1.2c0.3-0.6,0.6-1.1,0.8-1.6c0.3-0.5,0.4-0.9,0.6-1.3c0.1-0.4,0.2-0.6,0.2-0.8c0-0.2-0.1-0.3-0.4-0.3
				c-0.2,0-0.4,0.1-0.7,0.3c-0.3,0.2-0.5,0.5-0.8,0.9c-0.3,0.4-0.6,0.8-0.9,1.2c-0.3,0.4-0.6,0.9-0.9,1.4c-0.7,1.1-1.3,2.3-2,3.7
				c0-0.2,0.1-0.5,0.3-0.8c0.1-0.3,0.3-0.7,0.6-1.3c0.3-0.5,0.6-1.3,1-2.1c0.3-0.6,0.6-1.2,1-1.7c0.3-0.6,0.7-1.1,1.1-1.5
				c0.4-0.4,0.9-0.8,1.4-1.1C79.9,54.5,80.4,54.4,81.1,54.4z"/><path d="M85.1,60c0.1-0.3,0.3-0.7,0.6-1.2c0.3-0.5,0.6-1.1,0.9-1.7c0.3-0.6,0.7-1.3,1-2.1c0.4-0.7,0.7-1.4,1.1-2.2
				c0.8-1.7,1.7-3.5,2.7-5.4l4.4-0.6c-0.9,1.9-1.8,3.7-2.7,5.4c-0.4,0.7-0.7,1.5-1.1,2.2c-0.4,0.8-0.7,1.5-1.1,2.2
				c-0.4,0.7-0.7,1.4-1,2c-0.3,0.6-0.5,1.1-0.8,1.5c-0.4,0.8-0.8,1.5-1,2.1c-0.3,0.5-0.4,1-0.5,1.3c-0.1,0.3-0.1,0.6-0.1,0.7
				c0,0.1,0.1,0.2,0.3,0.2c0.3,0,0.7-0.2,1.1-0.6c0.4-0.4,0.8-0.9,1.2-1.4c0.4-0.6,0.9-1.3,1.4-2.1c-0.4,1-0.9,1.9-1.5,2.7
				c-0.2,0.3-0.5,0.7-0.8,1c-0.3,0.3-0.6,0.6-1,0.9c-0.4,0.3-0.8,0.5-1.2,0.6c-0.4,0.1-0.9,0.2-1.3,0.2c-0.9,0-1.5-0.2-1.7-0.5
				c-0.3-0.4-0.4-0.8-0.3-1.3c0.1-0.5,0.3-1.1,0.6-1.8C84.5,61.2,84.8,60.6,85.1,60z"/><path d="M92.3,60c0.3-0.6,0.6-1.2,0.9-1.8c0.3-0.6,0.5-1.1,0.8-1.6c0.3-0.6,0.5-1.1,0.8-1.6l4.4-0.6
				c-0.2,0.5-0.5,1-0.8,1.6c-0.2,0.5-0.5,1.1-0.9,1.8c-0.3,0.7-0.7,1.5-1.2,2.3c-0.4,0.8-0.8,1.5-1,2.1c-0.3,0.5-0.4,1-0.5,1.3
				c-0.1,0.3-0.1,0.6-0.1,0.7c0,0.1,0.1,0.2,0.3,0.2c0.3,0,0.7-0.2,1.1-0.6c0.4-0.4,0.8-0.9,1.2-1.4c0.4-0.6,0.9-1.3,1.4-2.1
				c-0.4,1-0.9,1.9-1.5,2.7c-0.2,0.3-0.5,0.7-0.8,1c-0.3,0.3-0.6,0.6-1,0.9c-0.4,0.3-0.8,0.5-1.2,0.6c-0.4,0.1-0.9,0.2-1.3,0.2
				c-0.9,0-1.5-0.2-1.7-0.5c-0.3-0.4-0.4-0.8-0.3-1.3c0.1-0.5,0.2-1.1,0.5-1.8C91.7,61.2,92,60.6,92.3,60z M96.1,52.3
				c0.4-0.7,0.7-1.3,1-1.8c0.3-0.5,0.5-0.9,0.8-1.2c0.3-0.3,0.5-0.5,0.8-0.7s0.6-0.3,1-0.4c0.4-0.1,0.9-0.2,1.4-0.2
				c0.5,0,1.2-0.1,2-0.2c-0.3,0.7-0.6,1.2-0.9,1.7c-0.2,0.4-0.5,0.8-0.7,1.1c-0.2,0.3-0.5,0.5-0.7,0.7c-0.3,0.2-0.6,0.3-1,0.4
				c-0.4,0.1-0.9,0.2-1.5,0.3C97.7,52,97,52.1,96.1,52.3z"/><path d="M96.9,65.6l5.2-10.6l4.4-0.6L101,65.6H96.9z M109.1,54.4c1.3,0,2.1,0.5,2.3,1.4c0.2,0.9-0.2,2.4-1.3,4.3
				c-0.9,1.6-1.4,2.7-1.7,3.3c-0.3,0.6-0.3,1,0.1,1c0.3,0,0.7-0.2,1.1-0.6c0.4-0.4,0.8-0.9,1.2-1.4c0.5-0.6,0.9-1.3,1.4-2.1
				c-0.4,1-0.9,1.9-1.5,2.7c-0.2,0.3-0.5,0.7-0.8,1c-0.3,0.3-0.6,0.6-1,0.9c-0.4,0.3-0.8,0.5-1.2,0.6c-0.4,0.1-0.9,0.2-1.3,0.2
				c-0.6,0-1-0.1-1.3-0.3c-0.3-0.2-0.5-0.4-0.6-0.7c-0.1-0.3-0.1-0.6,0-1c0.1-0.4,0.2-0.8,0.4-1.2c0.2-0.4,0.4-0.8,0.6-1.3
				c0.2-0.4,0.4-0.8,0.6-1.2c0.3-0.6,0.6-1.1,0.8-1.6c0.3-0.5,0.4-0.9,0.6-1.3c0.1-0.4,0.2-0.6,0.2-0.8c0-0.2-0.1-0.3-0.4-0.3
				c-0.2,0-0.4,0.1-0.7,0.3c-0.3,0.2-0.5,0.5-0.8,0.9c-0.3,0.4-0.6,0.8-0.9,1.2c-0.3,0.4-0.6,0.9-0.9,1.4c-0.7,1.1-1.3,2.3-2,3.7
				c0-0.2,0.1-0.5,0.3-0.8c0.1-0.3,0.3-0.7,0.6-1.3c0.3-0.5,0.6-1.3,1-2.1c0.3-0.6,0.6-1.2,1-1.7c0.3-0.6,0.7-1.1,1.1-1.5
				c0.4-0.4,0.9-0.8,1.4-1.1C107.9,54.5,108.5,54.4,109.1,54.4z"/><path d="M116.8,65.1c1.3,0,2.4-0.4,3.5-1.1c1.1-0.7,2.1-1.7,3.1-2.8c-0.4,0.6-0.8,1.1-1.3,1.7
				c-0.5,0.5-1.1,1-1.8,1.4c-0.6,0.4-1.3,0.7-2.1,1c-0.7,0.2-1.5,0.4-2.3,0.4c-1.2,0-2.1-0.3-2.7-0.8c-0.6-0.5-1-1.2-1.1-2.1
				c-0.1-0.8,0.1-1.7,0.5-2.7c0.4-1,1-1.9,1.8-2.7c0.8-0.8,1.7-1.5,2.9-2.1c1.1-0.5,2.4-0.8,3.7-0.8c0.9,0,1.6,0.2,2.1,0.5
				c0.5,0.4,0.8,0.8,0.8,1.3c0.1,0.5-0.1,1.1-0.4,1.8c-0.3,0.7-0.9,1.3-1.6,1.9c-0.7,0.6-1.6,1.1-2.7,1.6c-1.1,0.5-2.3,0.8-3.8,1
				c-0.2-0.1-0.3-0.2-0.2-0.3c0.1-0.1,0.2-0.1,0.4-0.2c0.5-0.1,1-0.3,1.5-0.7c0.5-0.4,1-0.8,1.4-1.4c0.4-0.5,0.9-1.1,1.2-1.7
				c0.4-0.6,0.7-1.2,0.9-1.7c0.2-0.5,0.3-0.9,0.4-1.3c0-0.3,0-0.5-0.2-0.5c-0.3,0-0.6,0.3-1.1,0.8c-0.5,0.5-1,1.1-1.5,1.9
				c-0.5,0.8-1,1.6-1.5,2.5c-0.5,0.9-0.8,1.7-1,2.5c-0.2,0.8-0.3,1.4-0.1,1.9C115.8,64.8,116.2,65.1,116.8,65.1z"/>
</svg>
